<!-- icon666.com - MILLIONS vector ICONS FREE --><svg id="Capa_1" enable-background="new 0 0 512 512" viewBox="0 0 512 512" xmlns="http://www.w3.org/2000/svg"><g><path d="m384 32v480h-352v-480h96l80 32 80-32z" fill="#c8fa64"></path><path d="m288 0v32l-80 32-80-32v-32z" fill="#4de600"></path><path d="m480 192v210.879c0 28.801-11.52 56.641-32 77.121-20.48-20.48-32-48.32-32-77.121v-210.879l32-16z" fill="#4de600"></path><path d="m480 96v64l-32 16-32-16v-64z" fill="#c8fa64"></path><g fill="#4de600"><path d="m208 96c-26.561 0-48 21.439-48 48v112h32v-64h32v64h32v-112c0-26.561-21.439-48-48-48zm16 64h-32v-16c0-8.961 7.039-16 16-16s16 7.039 16 16z"></path><path d="m64 288h288v32h-288z"></path><path d="m64 352h288v32h-288z"></path><path d="m64 416h160v32h-160z"></path></g><path d="m416 160h64v32h-64z" fill="#0c0"></path><path d="m128 32h160v32h-160z" fill="#0c0"></path></g></svg>